<?xml version="1.0" encoding="UTF-8"?>
<svg id="Layer_1" xmlns="http://www.w3.org/2000/svg" version="1.1" viewBox="0 0 480 480">
  <!-- Generator: Adobe Illustrator 29.7.1, SVG Export Plug-In . SVG Version: 2.1.1 Build 8)  -->
  <defs>
    <style>
      .st0 {
        fill: #fff;
        stroke: #000;
        stroke-miterlimit: 10;
      }
    </style>
  </defs>
  <circle class="st0" cx="240" cy="240" r="240"/>
  <path d="M442,175.42v7.5l-28.29,121.34c-3.06,9.47-9.97,16.73-19.69,19.31-75.17,2.53-150.83.42-226.18,1.07-14.82,1.4-15.11,22.41-.74,24.8l227.3-.05c12.83.39,16.53,17.57,4.09,21.79,14.35,30.87-11.39,63.75-45.15,56.01-11.27-2.58-21.83-11.97-26.23-22.52-4.57-10.95-3.79-21.75.14-32.76h-70.5c8.2,18.21,2.27,40.25-15.06,50.57-29.02,17.28-63.59-5.65-59.86-38.86.45-3.99,2.7-7.68,2.92-11.7h-22.12c-3.34,0-13.68-5.83-16.52-8.23-24.33-20.57-10.02-60.78,21.39-61.52l-50.96-190.17c-.91-2.09-1.82-3.07-4.13-3.37-13.36-1.75-30.59,1.8-44.09-.16-5.55-.81-8.13-4-10.32-8.8v-5.25c1.82-4.13,4.49-7.68,9.36-8.27,22.36,3.11,58.62-9.92,69.75,16.53,6.32,15.03,8.3,35.03,13.82,50.68l1.3,1.7c65.85,1.94,131.97.23,197.93.82,2.14.02,3.98.8,5.93.82,20.58.2,46.21-2.02,66.02-.02,10.22,1.03,17.49,9.18,19.88,18.74h.01ZM171.25,229.42h43.5l-6-51c-12.61-.31-25.3.42-37.91.04-3.87-.12-7.75-1.34-11.99-.78-1.09.14-1.26-.43-1.08,1.08l13.47,50.67h.01ZM280.75,178.42h-49.5l6.75,51h42.75v-51ZM352.75,178.42h-49.5v51h42.38l7.12-51ZM419.5,179.17h-44.25l-6,50.25h37.88l12.38-50.25h-.01ZM218.5,251.92h-40.5l11.64,44.98c.43,2.07,3.13,5.27,5.23,5.27h29.62l-6-50.25h.01ZM280.75,251.92h-39.75l6.75,50.25h33v-50.25ZM343,251.92h-39.75v50.25h32.62l7.12-50.25h.01ZM402.25,251.92h-35.62l-7.12,50.25h28.12c2.59,0,4.2-3.56,4.83-5.67,3.35-11.12,7.9-30.02,9.6-41.4.16-1.06.29-2.11.19-3.18h0ZM237.87,389.03c0-9.32-7.56-16.88-16.88-16.88s-16.88,7.56-16.88,16.88,7.56,16.88,16.88,16.88,16.88-7.56,16.88-16.88ZM380.08,389.07c0-9.3-7.54-16.83-16.83-16.83s-16.83,7.54-16.83,16.83,7.54,16.83,16.83,16.83,16.83-7.54,16.83-16.83Z"/>
</svg>